<?xml version="1.0" encoding="UTF-8"?>
<svg version="1.1" xmlns="http://www.w3.org/2000/svg" width="675" height="627">
<path d="M0 0 C9.63273043 7.62101691 18.0349175 19.44718628 20.34375 31.8046875 C21.55121996 44.07344479 19.6685581 53.54920541 15.5625 65.02734375 C-7.89312381 132.17669207 6.2129922 199.26258399 20.5625 267.02734375 C23.23444754 261.76632818 25.75206722 256.4782517 28.1015625 251.06640625 C28.42405975 250.32692749 28.74655701 249.58744873 29.0788269 248.82556152 C30.11865231 246.43603208 31.15386265 244.04455609 32.1875 241.65234375 C32.54287842 240.83054626 32.89825684 240.00874878 33.2644043 239.16204834 C39.41163667 224.92072952 45.2444246 210.60218662 50.5625 196.02734375 C51.11091553 194.53243408 51.11091553 194.53243408 51.67041016 193.00732422 C63.18472661 161.42096079 73.3287637 127.16046837 67.0625 93.52734375 C63.56900926 73.81044628 61.66452828 56.01929922 73.5859375 38.59375 C82.89602031 26.50536185 94.77146322 18.89266943 109.9453125 16.4921875 C124.24029601 15.10106494 138.22084627 16.87657687 149.75 25.83984375 C151.37164934 27.21532723 152.97702811 28.61031154 154.5625 30.02734375 C155.53896484 30.89746094 155.53896484 30.89746094 156.53515625 31.78515625 C167.43826216 42.08919041 171.93143271 54.59098146 172.59375 69.4765625 C172.45156466 85.63237196 167.76247496 95.65852494 156.5625 107.02734375 C155.1892695 108.36249946 153.81436114 109.6959324 152.4375 111.02734375 C132.68730077 130.65974855 130.40303941 160.24040286 130.28431702 186.64884949 C130.28467338 189.52511797 130.29708415 192.40111888 130.3125 195.27734375 C130.31493713 196.27503784 130.31737427 197.27273193 130.31988525 198.30065918 C130.38645224 221.65123923 131.57429465 244.8528576 134.5625 268.02734375 C135.71138283 266.90545816 136.85651137 265.77972691 138 264.65234375 C138.95712891 263.71261719 138.95712891 263.71261719 139.93359375 262.75390625 C141.64132176 261.11011314 141.64132176 261.11011314 142.5625 259.02734375 C143.2225 259.02734375 143.8825 259.02734375 144.5625 259.02734375 C144.83473389 258.43904785 145.10696777 257.85075195 145.38745117 257.24462891 C146.53846786 255.07269174 147.7694458 253.41403033 149.36328125 251.55078125 C150.20137329 250.55824341 150.20137329 250.55824341 151.05639648 249.5456543 C151.65653564 248.83836182 152.2566748 248.13106934 152.875 247.40234375 C172.96303602 223.34211196 191.77835194 196.91571966 191.75 164.40234375 C191.74991943 163.53150146 191.74983887 162.66065918 191.74975586 161.76342773 C191.6779191 153.54303438 190.79386234 145.59486061 189.015625 137.5546875 C186.85677604 125.51352131 188.83505668 113.38864505 195.5 103.08984375 C196.50393423 101.7231016 197.52325031 100.36742887 198.5625 99.02734375 C199.284375 98.01671875 200.00625 97.00609375 200.75 95.96484375 C210.38016686 84.85311275 224.08383394 78.90190878 238.43359375 77.80859375 C252.74800009 77.35235769 265.91192311 80.8707871 276.75 90.33984375 C287.27896447 100.34070969 295.26765972 110.70476502 295.86328125 125.796875 C295.88258847 127.47775824 295.88607794 129.15888613 295.875 130.83984375 C295.87008545 131.7220459 295.8651709 132.60424805 295.86010742 133.51318359 C295.7424011 140.06731295 295.05544053 145.9110605 292.5625 152.02734375 C292.23378906 152.84976563 291.90507813 153.6721875 291.56640625 154.51953125 C287.19174254 164.23764232 279.55476795 174.14620948 270.5625 180.02734375 C269.20154543 180.47662771 267.83191238 180.90002063 266.45703125 181.3046875 C261.0349694 183.17861281 256.8431988 185.1582111 253.5625 190.02734375 C249.7208269 200.71556298 249.76468473 213.12105716 248.94238281 224.34277344 C248.49586772 230.21113121 247.65014249 235.98373546 246.625 241.77734375 C246.4614502 242.71860107 246.29790039 243.6598584 246.12939453 244.62963867 C242.11342441 267.11012971 236.26931247 289.09863032 230.32055664 311.12866211 C227.67884183 320.92531672 225.08885246 330.72828548 222.71484375 340.59375 C222.50846786 341.44319183 222.30209198 342.29263367 222.08946228 343.16781616 C220.99264013 347.79946497 220.18703346 352.3474188 219.6875 357.08984375 C218.0667437 368.53827689 209.95043479 377.5076146 202.94335938 386.29492188 C200.96313129 388.77930987 199.00082963 391.27766825 197.03808594 393.77587891 C196.07461224 395.00110373 195.10920142 396.22480845 194.14160156 397.44677734 C192.18296401 399.92565551 190.31620961 402.39677933 188.5625 405.02734375 C187.9025 405.02734375 187.2425 405.02734375 186.5625 405.02734375 C186.335625 405.56617188 186.10875 406.105 185.875 406.66015625 C184.15847634 409.75602927 181.88956232 412.26071632 179.5625 414.90234375 C173.75884519 421.63561731 168.55470648 428.67720216 163.5625 436.02734375 C163.15725098 436.62224609 162.75200195 437.21714844 162.33447266 437.83007812 C151.12741009 453.99880008 151.12741009 453.99880008 149.5625 473.02734375 C151.14764767 478.53701026 153.33635798 483.75474436 155.5625 489.02734375 C168.05521029 518.86628685 168.05521029 518.86628685 171.5625 534.02734375 C171.80484375 534.97480469 172.0471875 535.92226563 172.296875 536.8984375 C173.62781333 542.80672454 173.81962816 548.74288028 173.9375 554.77734375 C173.96368408 555.58228271 173.98986816 556.38722168 174.0168457 557.21655273 C174.03557675 563.91602521 172.3433457 568.04287964 167.6953125 573.03125 C136.0612094 597.58768412 80.0305654 597.45683101 41.5625 600.02734375 C40.39496689 600.1087561 39.22743378 600.19016846 38.02452087 600.27404785 C24.50006961 601.15598001 10.9903812 601.20913678 -2.55859375 601.23046875 C-4.40451961 601.23470982 -4.40451961 601.23470982 -6.28773689 601.23903656 C-12.81202525 601.25393691 -19.33629205 601.26322176 -25.8605957 601.26757812 C-31.17316151 601.27131658 -36.48556833 601.28578123 -41.7980957 601.30859375 C-70.83027877 601.43077797 -99.57347797 601.42500103 -128.4375 598.02734375 C-129.81760327 597.87071019 -131.19778399 597.71475779 -132.57803345 597.55941772 C-214.78980717 588.25815318 -214.78980717 588.25815318 -233.203125 568.80078125 C-239.43298238 559.85028995 -236.70423652 546.27648718 -234.90942383 536.12182617 C-231.57296971 518.79660251 -225.52779721 502.59519247 -218.92578125 486.29296875 C-213.1354929 472.54682442 -213.1354929 472.54682442 -215.0625 458.21484375 C-220.66851623 445.37018201 -228.48375141 434.32706486 -237.14941406 423.40478516 C-239.08221831 420.94079976 -240.43795317 419.02598425 -241.4375 416.02734375 C-242.0975 416.02734375 -242.7575 416.02734375 -243.4375 416.02734375 C-245.3125 413.98046875 -245.3125 413.98046875 -247.4375 411.27734375 C-248.489375 409.95476562 -248.489375 409.95476562 -249.5625 408.60546875 C-251.13057683 406.44936311 -252.35076484 404.44985754 -253.4375 402.02734375 C-254.0975 402.02734375 -254.7575 402.02734375 -255.4375 402.02734375 C-256.0975 400.37734375 -256.7575 398.72734375 -257.4375 397.02734375 C-258.0975 397.02734375 -258.7575 397.02734375 -259.4375 397.02734375 C-261.38201184 394.6915027 -263.2033533 392.34872292 -265 389.90234375 C-265.79929932 388.82484863 -265.79929932 388.82484863 -266.61474609 387.72558594 C-281.97609494 366.80546105 -281.97609494 366.80546105 -283.5625 356.52734375 C-284.87344634 348.8619617 -286.93651176 341.48383582 -289.125 334.02734375 C-293.31420708 319.70515202 -297.01121839 305.29539122 -300.5234375 290.79443359 C-301.10182656 288.41074148 -301.68460313 286.02810602 -302.2734375 283.64697266 C-305.50557573 270.56441313 -308.22141506 257.41983154 -310.5625 244.15234375 C-310.75921295 243.0608905 -310.75921295 243.0608905 -310.9598999 241.9473877 C-312.49601437 233.3467604 -313.60699729 224.86850361 -314.0703125 216.140625 C-314.13668343 201.18392603 -314.13668343 201.18392603 -319.17382812 187.671875 C-323.35713344 184.19555219 -328.07852956 182.55528648 -333.19775391 180.90136719 C-342.64577169 177.21443633 -350.19107611 166.81672951 -354.4375 158.02734375 C-357.05350377 151.24659778 -359.11719705 144.3142359 -359.4375 137.02734375 C-359.4890625 136.07601562 -359.540625 135.1246875 -359.59375 134.14453125 C-360.00367006 119.96812913 -357.17578683 105.44834787 -347.28125 94.74609375 C-334.65126073 82.97237494 -319.66190999 77.4041954 -302.47265625 77.78125 C-285.36342604 79.16848488 -272.13802278 87.80618906 -261.26953125 100.57421875 C-252.63780945 112.13225989 -250.30839156 124.93647477 -252.21484375 139.11328125 C-252.59139409 141.54456539 -252.97834148 143.97425916 -253.375 146.40234375 C-258.25406185 179.26755504 -249.54179084 204.70889824 -230 231.27734375 C-222.76912547 240.5869353 -215.06639756 249.49099277 -207.01953125 258.1015625 C-205.4375 260.02734375 -205.4375 260.02734375 -205.4375 262.02734375 C-204.1175 262.68734375 -202.7975 263.34734375 -201.4375 264.02734375 C-201.4375 264.68734375 -201.4375 265.34734375 -201.4375 266.02734375 C-200.7775 266.02734375 -200.1175 266.02734375 -199.4375 266.02734375 C-199.4375 266.68734375 -199.4375 267.34734375 -199.4375 268.02734375 C-198.7775 268.02734375 -198.1175 268.02734375 -197.4375 268.02734375 C-196.7278766 258.6968806 -196.06252304 249.36386025 -195.4375 240.02734375 C-195.37385254 239.08407227 -195.31020508 238.14080078 -195.24462891 237.16894531 C-194.32359219 222.78085831 -194.33479026 208.37636322 -194.3125 193.96484375 C-194.30982117 192.98653595 -194.30714233 192.00822815 -194.30438232 191.00027466 C-194.16836463 151.58517824 -194.16836463 151.58517824 -209.4375 116.02734375 C-212.56832522 113.05963716 -215.94020577 110.54474594 -219.4375 108.02734375 C-228.71109467 101.06395553 -233.68203166 92.4842034 -235.4375 81.02734375 C-236.94129798 63.37362628 -235.11146877 47.70149692 -223.47265625 33.65625 C-212.67534072 22.07793515 -199.5938391 16.83795034 -184.0234375 16.02734375 C-170.75250529 16.02734375 -158.56639905 19.34830699 -148.4375 28.02734375 C-147.69628906 28.61386719 -146.95507812 29.20039062 -146.19140625 29.8046875 C-135.57649189 38.55796427 -129.48389205 49.96256245 -128.05859375 63.671875 C-127.75131489 73.45523748 -129.44280528 82.66877083 -131.46484375 92.21484375 C-141.9083137 142.26840928 -115.663218 198.21569026 -96.125 243.08984375 C-95.82831421 243.77342957 -95.53162842 244.45701538 -95.22595215 245.16131592 C-91.9676006 252.64629632 -88.61623574 260.00179231 -84.4375 267.02734375 C-62.2576128 168.32718918 -62.2576128 168.32718918 -76.984375 69.8359375 C-77.2101976 69.20413071 -77.4360202 68.57232391 -77.66868591 67.92137146 C-78.79578987 64.77410385 -79.94488459 61.64072446 -81.13500977 58.51635742 C-85.93229256 45.34583354 -85.6524274 33.15429804 -80.25390625 20.18359375 C-74.22213607 8.01753038 -63.75061481 -1.06902479 -51.296875 -6.2890625 C-33.99617135 -12.06266942 -15.14524543 -10.41235623 0 0 Z M-50.4375 29.02734375 C-54.51855709 35.74627381 -54.40217487 42.38110935 -53.4375 50.02734375 C-51.52772344 55.33002121 -48.79731629 59.55084157 -43.9375 62.52734375 C-35.97837508 65.93839729 -30.00281497 66.54400462 -21.4375 65.02734375 C-17.88428747 63.41226777 -17.88428747 63.41226777 -15.4375 61.02734375 C-14.695 60.38796875 -13.9525 59.74859375 -13.1875 59.08984375 C-8.29686505 53.32588113 -8.37286113 45.71175956 -8.5 38.46484375 C-10.66101504 30.54112195 -15.48019251 25.15019263 -22.4375 21.02734375 C-32.93232543 17.67930128 -43.21809554 20.82509957 -50.4375 29.02734375 Z M-202.4375 57.02734375 C-205.0368423 62.05892777 -205.96092609 66.27121733 -205.875 71.96484375 C-205.86742676 72.66778564 -205.85985352 73.37072754 -205.85205078 74.0949707 C-205.64671485 80.55405975 -204.3934927 84.81394719 -200.046875 89.5390625 C-193.90222584 95.18243765 -186.9587783 95.53708524 -178.9921875 95.40234375 C-172.13150048 94.67857897 -167.29760321 92.30597018 -162.9375 86.96484375 C-159.12151734 78.52951367 -158.98547356 70.52606018 -161.41796875 61.71875 C-163.85549006 55.28406731 -166.42014897 52.98323549 -172.4375 50.02734375 C-183.28562283 46.57049958 -194.55845853 48.96506876 -202.4375 57.02734375 Z M100.5625 59.02734375 C96.28526796 65.71051881 96.61695274 73.77998237 97.99609375 81.43359375 C99.63304407 86.72063827 102.95029789 90.07176933 107.5625 93.02734375 C114.29541163 96.34253374 122.37484131 96.16541458 129.5234375 94.22265625 C135.19818432 91.7516704 138.02705103 88.74604145 140.72265625 83.2109375 C143.57270858 75.80080144 143.59922723 68.07065079 140.3984375 60.7734375 C140.12257813 60.19722656 139.84671875 59.62101562 139.5625 59.02734375 C139.170625 58.11984375 138.77875 57.21234375 138.375 56.27734375 C135.13179837 52.25130034 130.37148278 50.63033801 125.5625 49.02734375 C115.00833682 48.06787437 107.74469667 51.29515904 100.5625 59.02734375 Z M-323.8828125 116.6640625 C-326.4257596 120.01348711 -328.1320709 122.75133632 -328.4375 127.02734375 C-328.48777344 127.70796875 -328.53804688 128.38859375 -328.58984375 129.08984375 C-328.88022894 135.96616497 -327.17093295 141.02502333 -322.875 146.46484375 C-322.070625 147.31046875 -321.26625 148.15609375 -320.4375 149.02734375 C-319.7775 149.02734375 -319.1175 149.02734375 -318.4375 149.02734375 C-318.4375 149.68734375 -318.4375 150.34734375 -318.4375 151.02734375 C-311.98613677 154.62810462 -305.72162161 154.84568334 -298.4375 154.02734375 C-293.59824341 152.53892887 -289.59236039 150.03158963 -286.4375 146.02734375 C-282.8635042 138.44253043 -282.47861042 129.00384843 -284.71875 120.95703125 C-287.10554255 114.54901213 -290.51599618 111.88235452 -296.4375 109.02734375 C-305.7473016 105.42354958 -317.46043086 109.39114923 -323.8828125 116.6640625 Z M223.5625 115.27734375 C219.46920706 122.06092817 218.52842871 129.8246726 220.0625 137.54296875 C221.90632567 144.54112528 224.24128063 148.86133112 230.4375 152.90234375 C237.48543911 155.48916975 247.33923972 155.51993272 254.1875 152.40234375 C259.36914994 149.21450259 262.67727795 144.81530617 264.5625 139.02734375 C265.37119642 131.15665878 265.63751419 123.46870792 260.5625 117.02734375 C255.07210469 110.81153352 248.73342719 108.4907801 240.625 107.58984375 C234.20011306 107.89823832 227.59057574 110.08480954 223.5625 115.27734375 Z M-133.4375 363.02734375 C-134.12944458 363.10962219 -134.82138916 363.19190063 -135.53430176 363.27667236 C-169.54417454 366.80653238 -169.54417454 366.80653238 -199.4375 382.02734375 C-201.42242228 384.59120169 -201.44441482 385.70234711 -201.375 388.96484375 C-200.15934913 392.93596994 -198.69748064 394.46097601 -195.4375 397.02734375 C-190.19228816 399.62122967 -185.19707586 400.48374831 -179.359375 400.4609375 C-178.189226 400.47104355 -178.189226 400.47104355 -176.99543762 400.48135376 C-174.39242841 400.49489483 -171.79047938 400.48184282 -169.1875 400.46484375 C-168.27942596 400.46346405 -167.37135193 400.46208435 -166.4357605 400.46066284 C-143.57171084 400.39788942 -120.79418708 398.67311497 -98.00390625 397 C-76.42755539 395.42448513 -54.94792751 394.71860584 -33.3125 394.65234375 C-32.19820051 394.64800827 -32.19820051 394.64800827 -31.06138992 394.64358521 C1.20727432 394.52924396 33.32653281 396.19630312 65.52197266 398.24853516 C81.5793284 399.2676767 97.62216109 400.26729402 113.71484375 400.43359375 C114.91597305 400.45764282 116.11710236 400.48169189 117.35462952 400.50646973 C125.45632073 400.50499631 131.00268661 399.40916647 137.0625 393.65234375 C138.93065776 390.38306768 139.16900777 388.74220385 138.5625 385.02734375 C134.59676163 376.93062791 127.62328451 374.24889219 119.5 371.40234375 C42.24084534 346.51808512 -53.9884163 353.57627486 -133.4375 363.02734375 Z M-137.4375 480.02734375 C-139.18426025 480.36620605 -139.18426025 480.36620605 -140.96630859 480.71191406 C-144.6087828 481.43585399 -148.24284088 482.19088696 -151.875 482.96484375 C-152.95942383 483.19341064 -154.04384766 483.42197754 -155.16113281 483.6574707 C-166.05819908 486.11463574 -176.6606107 489.9182719 -185.4375 497.02734375 C-187.07243153 500.2972068 -187.10355518 503.50676636 -186.4375 507.02734375 C-184.28578915 510.86170738 -181.88026016 513.36635317 -177.87109375 515.203125 C-173.24056476 516.31466268 -168.8733181 516.36584598 -164.125 516.33984375 C-162.50621948 516.33464722 -162.50621948 516.33464722 -160.85473633 516.3293457 C-150.74568449 516.20323512 -140.70123444 515.49059741 -130.625 514.71484375 C-129.7679245 514.64910156 -128.910849 514.58335937 -128.02780151 514.515625 C-126.24591181 514.3788963 -124.4640261 514.24211554 -122.68214417 514.10528564 C-58.52618942 509.18591094 4.14126163 509.84544992 68.23657227 514.59545898 C70.10834389 514.73269882 70.10834389 514.73269882 72.01792908 514.87271118 C74.35559969 515.04448061 76.69307508 515.21894058 79.0302887 515.39682007 C100.92514375 518.11011396 100.92514375 518.11011396 120.875 511.27734375 C123.17976718 508.20432084 123.98244795 505.8299072 124.5625 502.02734375 C122.78271265 495.95512808 119.87977174 492.05490984 114.47265625 488.75 C95.46824768 478.61636885 72.70826995 476.43564535 51.5625 475.02734375 C50.35094238 474.93710937 49.13938477 474.846875 47.89111328 474.75390625 C-12.46467325 470.3713936 -77.86324456 468.44268346 -137.4375 480.02734375 Z " fill="#FF87AD" transform="translate(366.4375,19.97265625)"/>
<path d="M0 0 C0.66 0.33 1.32 0.66 2 1 C0.56974806 2.65213589 -0.86945545 4.29652589 -2.3125 5.9375 C-3.11300781 6.85402344 -3.91351563 7.77054688 -4.73828125 8.71484375 C-7 11 -7 11 -10 12 C-8.52278578 8.54798361 -6.56205999 6.35038064 -3.875 3.75 C-3.15054687 3.04359375 -2.42609375 2.3371875 -1.6796875 1.609375 C-1.12539063 1.07828125 -0.57109375 0.5471875 0 0 Z " fill="#FFB7D0" transform="translate(451,47)"/>
<path d="M0 0 C0.33 0 0.66 0 1 0 C0.5697663 7.6700283 -0.74231361 14.65896942 -3 22 C-3.66 21.01 -4.32 20.02 -5 19 C-4.2265625 16.2421875 -4.2265625 16.2421875 -3 13 C-2.43254977 10.71458119 -1.89079409 8.4226282 -1.375 6.125 C-1.11460937 4.97257812 -0.85421875 3.82015625 -0.5859375 2.6328125 C-0.39257812 1.76398438 -0.19921875 0.89515625 0 0 Z " fill="#FFE8F1" transform="translate(286,269)"/>
</svg>
